# xmcd
#
# Track frame offsets:
#	150
#	83117
#	138282
#	183727
#	211644
#	253047
#
# Disc length: 3540 seconds
#
# Revision: 0
# Processed by: cddbd v1.5.2PL0 Copyright (c) Steve Scherf et al.
# Submitted via: audiograbber 1.83.01
#
DISCID=4c0dd206
DTITLE=Klaus Schulze and Pete Namlook - The Dark Side Of The Moog [Boxset 1 - Vol
DTITLE=1-4 2016] [CD 3) - Vol. 3
DYEAR=1995
DGENRE=Electronic
TTITLE0=Phantom Heart Brother Part I
TTITLE1=Phantom Heart Brother Part II
TTITLE2=Phantom Heart Brother Part III
TTITLE3=Phantom Heart Brother Part IV
TTITLE4=Phantom Heart Brother Part V
TTITLE5=Phantom Heart Brother Part VI
EXTD=
EXTT0=
EXTT1=
EXTT2=
EXTT3=
EXTT4=
EXTT5=
PLAYORDER=
